<?xml version="1.0" encoding="UTF-8" standalone="no"?>
<svg
   xmlns:dc="http://purl.org/dc/elements/1.1/"
   xmlns:cc="http://creativecommons.org/ns#"
   xmlns:rdf="http://www.w3.org/1999/02/22-rdf-syntax-ns#"
   xmlns:svg="http://www.w3.org/2000/svg"
   xmlns="http://www.w3.org/2000/svg"
   width="1080"
   height="1080"
   viewBox="0 0 285.75001 285.75001"
   version="1.1"
   id="svg8">
  <defs
     id="defs2">
    <marker
       style="overflow:visible"
       id="Arrow1Mend"
       refX="0"
       refY="0"
       orient="auto">
      <path
         transform="matrix(-0.4,0,0,-0.4,-4,0)"
         style="fill:#fa8f00;fill-opacity:1;fill-rule:evenodd;stroke:#fa8f00;stroke-width:1.00000003pt;stroke-opacity:1"
         d="M 0,0 5,-5 -12.5,0 5,5 Z"
         id="path5322" />
    </marker>
    <marker
       style="overflow:visible"
       id="Arrow1Mend-4"
       refX="0"
       refY="0"
       orient="auto">
      <path
         transform="matrix(-0.4,0,0,-0.4,-4,0)"
         style="fill:#fa8f00;fill-opacity:1;fill-rule:evenodd;stroke:#fa8f00;stroke-width:1.00000003pt;stroke-opacity:1"
         d="M 0,0 5,-5 -12.5,0 5,5 Z"
         id="path5322-5" />
    </marker>
  </defs>
  <metadata
     id="metadata5">
    <rdf:RDF>
      <cc:Work
         rdf:about="">
        <dc:format>image/svg+xml</dc:format>
        <dc:type
           rdf:resource="http://purl.org/dc/dcmitype/StillImage" />
        <dc:title></dc:title>
      </cc:Work>
    </rdf:RDF>
  </metadata>
  <rect
     style="fill:#c9ebfb;fill-opacity:1;stroke:none;stroke-width:18.2091732;stroke-linecap:round;stroke-miterlimit:4;stroke-dasharray:none;stroke-opacity:1;paint-order:markers stroke fill"
     id="rect7624"
     width="285.75"
     height="285.75"
     x="0.0084436871"
     y="-0.0035707499" />
  <g
     style="fill:#294270;fill-opacity:1"
     id="g3606"
     transform="matrix(0.52916668,0,0,0.52916668,15.819709,17.030406)">
    <g
       style="fill:#294270;fill-opacity:1"
       id="g3604">
      <path
         style="fill:#294270;fill-opacity:1"
         id="path3602"
         d="m 372.189,256.191 -51.928,-66.104 c 18.439,-18.904 29.574,-43.737 31.424,-70.08 h 80.408 v 8.8 c -18.613,3.825 -31.979,20.198 -32,39.2 0.005,22.091 17.917,39.996 40.008,39.992 22.091,-0.004 39.996,-17.917 39.992,-40.008 -0.004,-19.005 -13.379,-35.383 -32,-39.184 v -16.8 c 0,-4.418 -3.582,-8 -8,-8 h -88.408 c -1.564,-22.165 -9.728,-43.355 -23.44,-60.84 l 11.16,-11.16 h 94.16 c 4.418,12.497 18.131,19.046 30.627,14.627 12.497,-4.418 19.046,-18.131 14.627,-30.627 C 474.4,3.511 460.689,-3.039 448.193,1.379 441.358,3.795 435.982,9.172 433.566,16.006 h -97.472 c -2.122,0 -4.156,0.844 -5.656,2.344 l -12.92,12.92 C 273.06,-11.546 202.31,-10.215 159.493,34.243 141.295,53.139 130.324,77.835 128.502,104.006 h -67.2 L 35.149,45.183 C 46.84,39.03 51.33,24.566 45.178,12.875 39.026,1.184 24.561,-3.305 12.87,2.847 1.18,8.999 -3.31,23.463 2.842,35.154 6.075,41.298 11.819,45.735 18.581,47.31 l 30.2,67.952 c 1.286,2.887 4.152,4.746 7.312,4.744 h 72.408 c 1.842,26.04 12.762,50.608 30.856,69.424 l -67.536,67.536 c -43.669,-6.543 -84.374,23.553 -90.917,67.222 -6.543,43.669 23.553,84.374 67.222,90.917 1.318,0.198 2.641,0.362 3.967,0.493 v 40.408 c 0,4.418 3.582,8 8,8 h 73.472 c 4.418,12.497 18.131,19.046 30.627,14.627 12.496,-4.419 19.046,-18.131 14.627,-30.627 -4.419,-12.496 -18.131,-19.046 -30.627,-14.627 -6.835,2.416 -12.211,7.793 -14.627,14.627 H 88.093 v -32.408 c 43.938,-4.38 76.007,-43.55 71.627,-87.489 -2.964,-29.732 -22.26,-55.331 -50.027,-66.367 l 61.6,-61.6 c 40.116,31.586 96.582,31.813 136.952,0.552 l 44.384,56.496 c -61.285,8.549 -104.036,65.16 -95.487,126.444 8.549,61.285 65.16,104.036 126.444,95.487 61.285,-8.549 104.036,-65.16 95.487,-126.444 -7.508,-53.83 -52.569,-94.507 -106.884,-96.486 z m 91.904,-88.184 c 0,13.255 -10.745,24 -24,24 -13.255,0 -24,-10.745 -24,-24 0,-13.255 10.745,-24 24,-24 13.255,0 24,10.745 24,24 z m -8,-152 c 4.418,0 8,3.582 8,8 0,4.418 -3.582,8 -8,8 -4.418,0 -8,-3.582 -8,-8 0,-4.418 3.582,-8 8,-8 z m -432,16 c -4.418,0 -8,-3.582 -8,-8 0,-4.418 3.582,-8 8,-8 4.418,0 8,3.582 8,8 0,4.418 -3.582,8 -8,8 z m 152,416 c 4.418,0 8,3.582 8,8 0,4.418 -3.582,8 -8,8 -4.418,0 -8,-3.582 -8,-8 0,-4.418 3.582,-8 8,-8 z m -64,-56.656 c -19.771,11.546 -44.229,11.546 -64,0 v -15.344 c 0,-17.673 14.327,-32 32,-32 17.673,0 32,14.327 32,32 z m -48,-79.344 c 0,-8.837 7.163,-16 16,-16 8.837,0 16,7.163 16,16 0,8.837 -7.163,16 -16,16 -8.837,0 -16,-7.164 -16,-16 z m 64,-18.472 c 10.342,11.727 16.034,26.835 16,42.472 -0.003,15.546 -5.694,30.553 -16,42.192 v -2.192 c -0.01,-17.49 -9.533,-33.591 -24.856,-42.024 12.203,-12.784 11.731,-33.04 -1.053,-45.243 -12.784,-12.202 -33.04,-11.731 -45.243,1.053 -11.803,12.365 -11.803,31.824 0,44.189 -15.32,8.435 -24.839,24.535 -24.848,42.024 v 2.192 c -23.379,-26.51 -20.841,-66.953 5.668,-90.332 26.51,-23.379 66.953,-20.841 90.332,5.669 z m 168,-103.736 c -33.397,24.246 -78.603,24.246 -112,0 v -19.392 c 0,-14.58 11.82,-26.4 26.4,-26.4 h 17.76 l -11.608,29.024 c -1.189,2.973 -0.49,6.37 1.776,8.632 l 16,16 c 3.124,3.123 8.188,3.123 11.312,0 l 16,-16 c 2.266,-2.263 2.965,-5.659 1.776,-8.632 l -11.6,-29.024 h 17.784 c 14.58,0 26.4,11.82 26.4,26.4 z M 241.238,59.887 c -0.3,0.5 -0.544,1.03 -0.728,1.583 -4.048,12.136 -25.903,16.736 -39.975,18.072 2.146,-26.81 14.762,-39.536 39.559,-39.536 22.704,0 35.2,10.736 38.776,33.136 l -26.656,-16 c -3.79,-2.272 -8.704,-1.043 -10.976,2.745 z m 9.887,15.272 28.592,17.16 c -3.208,19.584 -27.344,35.688 -39.624,35.688 -17.843,-3.039 -32.686,-15.412 -38.888,-32.416 13.696,-1.128 38.424,-5.28 49.92,-20.432 z m -4.424,98.92 -6.608,6.616 -6.608,-6.616 6.608,-16.536 z m 28.296,-45.704 c 12.48,-9.821 20.159,-24.515 21.096,-40.368 0,-52.896 -30.456,-64 -56,-64 -25.544,0 -56,11.104 -56,64 0.93,15.862 8.61,30.566 21.096,40.392 -21.206,2.613 -37.127,20.641 -37.096,42.008 v 4.864 C 133.024,135.507 136.83,74.842 176.595,39.773 216.36,4.704 277.024,8.51 312.093,48.274 c 32,36.285 32,90.711 0,126.996 v -4.864 c 0.043,-21.375 -15.881,-39.418 -37.096,-42.031 z m 149.096,317.424 c -33.397,24.246 -78.603,24.246 -112,0 v -19.392 c 0,-14.58 11.82,-26.4 26.4,-26.4 h 17.76 l -11.608,29.024 c -1.189,2.973 -0.49,6.369 1.776,8.632 l 16,16 c 3.124,3.123 8.188,3.123 11.312,0 l 16,-16 c 2.266,-2.263 2.965,-5.659 1.776,-8.632 l -11.6,-29.024 h 17.784 c 14.58,0 26.4,11.82 26.4,26.4 z m -44.968,-114.64 v -0.008 l 28.592,17.16 c -3.208,19.592 -27.344,35.696 -39.624,35.696 -17.843,-3.039 -32.686,-15.412 -38.888,-32.416 13.696,-1.128 38.424,-5.281 49.92,-20.432 z m -50.592,4.384 v 0 c 2.144,-26.808 14.76,-39.536 39.56,-39.536 22.704,0 35.2,10.736 38.776,33.136 l -26.656,-16 c -3.789,-2.273 -8.703,-1.044 -10.976,2.745 -0.3,0.5 -0.544,1.03 -0.728,1.583 -4.048,12.136 -25.904,16.736 -39.976,18.072 z m 46.168,94.536 -6.608,6.616 -6.608,-6.616 6.608,-16.536 z m 65.392,1.215 v -4.888 c 0.043,-21.376 -15.881,-39.418 -37.096,-42.032 12.48,-9.821 20.159,-24.515 21.096,-40.368 0,-52.896 -30.456,-64 -56,-64 -25.544,0 -56,11.104 -56,64 0.93,15.862 8.61,30.566 21.096,40.392 -21.206,2.613 -37.127,20.641 -37.096,42.008 v 4.864 c -34.987,-39.795 -31.089,-100.419 8.706,-135.406 39.795,-34.987 100.419,-31.089 135.406,8.706 15.416,17.534 23.909,40.088 23.888,63.435 -0.005,23.32 -8.541,45.831 -24,63.289 z" />
    </g>
  </g>
</svg>
